<?xml version="1.0" encoding="utf-8"?><svg xml:space="preserve" viewBox="0 0 100 100" y="0" x="0" xmlns="http://www.w3.org/2000/svg" id="圖層_1" version="1.1" width="200px" height="200px" xmlns:xlink="http://www.w3.org/1999/xlink" style="width:100%;height:100%;background-size:initial;background-repeat-y:initial;background-repeat-x:initial;background-position-y:initial;background-position-x:initial;background-origin:initial;background-image:initial;background-color:rgba(255, 255, 255, 0);background-clip:initial;background-attachment:initial;animation-play-state:paused" ><g class="ldl-scale" style="transform-origin:50% 50%;transform:rotate(0deg) scale(0.8, 0.8);animation-play-state:paused" ><circle fill="#333" r="40" cy="50" cx="50" style="fill:rgb(51, 51, 51);animation-play-state:paused" ></circle>
<path d="M52.6 15h.4-.4z" style="animation-play-state:paused" ></path>
<path d="M51.5 15h0z" style="animation-play-state:paused" ></path>
<path d="M52.5 15h-.8.8z" style="animation-play-state:paused" ></path>
<path fill="#f5e6c8" d="M61.4 51.9l-1.8-.9c5.6-3.7 8.9-10.4 7.6-17.8C65.9 25.7 59.6 19.8 52 19c-.6-.1-1.1-.1-1.7-.1h-1.2c-9.2.5-16.6 8.1-16.6 17.5 0 6.1 3.1 11.5 7.9 14.6l-1.8.9c-6.7 3.9-11.3 11-11.4 19.3 5.7 6.1 13.8 9.9 22.8 9.9s17.1-3.8 22.8-9.9c-.2-8.3-4.7-15.5-11.4-19.3z" style="fill:rgb(255, 255, 255);animation-play-state:paused" ></path>
<metadata xmlns:d="https://loading.io/stock/" style="animation-play-state:paused" ><d:name style="animation-play-state:paused" >user</d:name>


<d:tags style="animation-play-state:paused" >people,avatar,man,figure,human,account,profile,user,web application</d:tags>


<d:license style="animation-play-state:paused" >by</d:license>


<d:slug style="animation-play-state:paused" >jrijl4</d:slug></metadata></g><!-- generated by https://loading.io/ --></svg>